<?xml version="1.0" standalone="no"?>
<!DOCTYPE svg PUBLIC "-//W3C//DTD SVG 20010904//EN"
 "http://www.w3.org/TR/2001/REC-SVG-20010904/DTD/svg10.dtd">
<svg version="1.0" xmlns="http://www.w3.org/2000/svg"
 width="640.000000pt" height="640.000000pt" viewBox="0 0 640.000000 640.000000"
 preserveAspectRatio="xMidYMid meet">

<g transform="translate(0.000000,640.000000) scale(0.100000,-0.100000)"
fill="#000000" stroke="none">
<path d="M0 3200 l0 -3200 3200 0 3200 0 0 3200 0 3200 -3200 0 -3200 0 0
-3200z m2095 849 c33 -7 66 -13 73 -15 18 -5 15 -45 -8 -92 -11 -22 -20 -52
-20 -66 0 -14 -4 -28 -10 -31 -5 -3 -10 -17 -10 -30 0 -13 -4 -26 -9 -29 -5
-3 -11 -20 -14 -38 -3 -18 -11 -62 -17 -98 -14 -79 -14 -76 -1 -230 18 -219
31 -299 59 -360 8 -19 18 -48 22 -65 6 -29 25 -38 25 -12 0 6 4 15 9 19 6 3
11 19 13 35 2 15 10 51 17 78 90 313 96 354 99 611 2 205 2 209 23 212 34 5
171 -130 201 -198 13 -30 33 -73 43 -95 10 -22 28 -69 40 -105 12 -36 25 -74
30 -85 14 -33 22 -76 27 -146 4 -53 1 -75 -15 -106 -31 -59 -177 -194 -242
-222 -30 -13 -71 -30 -90 -39 -49 -21 -255 -29 -329 -12 -31 7 -75 25 -99 39
-119 72 -190 123 -221 157 -49 55 -100 143 -107 184 -4 19 -10 40 -13 45 -20
30 -31 92 -32 176 -2 136 30 210 163 381 81 104 106 128 131 128 13 0 32 7 43
15 21 17 104 15 219 -6z m2260 -4 c104 -25 190 -60 220 -89 61 -60 139 -190
162 -271 6 -22 19 -66 28 -97 19 -70 10 -140 -31 -233 -8 -16 -20 -46 -28 -66
-7 -19 -28 -51 -45 -71 -17 -20 -31 -39 -31 -42 0 -19 -77 -73 -175 -122 -116
-58 -191 -77 -260 -65 -33 5 -40 10 -42 31 -2 28 14 114 27 145 20 46 24 92
27 319 2 156 0 243 -7 250 -5 5 -10 22 -10 37 0 15 -4 31 -10 34 -5 3 -10 17
-10 30 0 13 -4 27 -10 30 -5 3 -10 15 -10 26 0 10 -9 38 -19 62 -29 63 -30 79
-2 93 26 13 169 12 226 -1z m-371 -43 c8 -14 6 -149 -5 -287 -13 -162 -13
-161 0 -270 20 -180 30 -216 118 -414 24 -54 11 -58 -127 -38 -68 10 -134 25
-153 36 -75 42 -177 113 -190 131 -8 11 -31 38 -51 60 -36 39 -36 40 -36 124
0 47 5 88 10 91 6 3 10 23 10 44 0 20 4 41 8 47 10 10 63 148 82 212 7 23 16
42 20 42 4 0 10 13 13 29 7 33 53 91 72 91 8 0 18 6 22 13 12 19 105 84 128
90 33 8 74 8 79 -1z m1056 -1437 c-8 -9 -8 -15 0 -20 18 -11 12 -55 -8 -55
-17 0 -52 -59 -52 -88 0 -18 -18 -24 -50 -17 -27 6 -30 11 -30 44 0 46 34 95
93 132 42 27 68 29 47 4z m-3844 -101 c33 -42 64 -85 69 -94 10 -17 12 -17 35
1 14 10 33 19 43 19 21 0 183 -75 192 -89 3 -6 45 -10 94 -10 97 0 180 -16
188 -37 7 -19 20 -18 51 5 57 39 166 34 260 -12 17 -8 25 -8 34 1 15 15 140
16 207 1 33 -7 58 -19 70 -35 25 -32 43 -30 61 8 33 70 140 89 232 43 50 -25
56 -25 90 4 26 22 158 52 252 58 70 4 80 2 101 -17 l24 -22 40 22 c35 20 45
22 88 13 88 -20 161 -51 201 -86 22 -20 22 -20 36 -1 12 16 25 19 87 17 93 -4
99 -6 126 -48 49 -74 39 -172 -21 -213 -18 -12 -40 -22 -49 -22 -9 0 -17 -3
-17 -7 0 -10 21 -76 31 -95 5 -9 11 -34 15 -56 7 -43 -5 -58 -63 -78 -38 -13
-114 -7 -125 10 -11 16 -9 75 3 120 13 46 74 116 102 116 19 0 18 2 -5 23 -14
12 -33 34 -43 50 -22 34 -35 35 -35 0 0 -19 -14 -42 -47 -75 -26 -26 -52 -48
-59 -48 -6 0 -17 -6 -23 -14 -10 -12 -8 -17 7 -25 28 -15 62 -73 62 -104 0
-33 -26 -48 -99 -54 -81 -8 -96 9 -88 95 5 45 12 68 24 77 16 12 13 17 -33 58
-28 25 -58 65 -69 89 -70 165 -76 168 -88 51 -3 -23 -12 -56 -21 -74 -9 -18
-16 -39 -16 -48 0 -9 -9 -27 -20 -41 -25 -32 -25 -37 5 -44 39 -10 56 -46 53
-111 -3 -57 -3 -57 -43 -71 -22 -8 -60 -15 -85 -17 l-44 -2 -2 55 c-2 40 3 64
17 87 l19 31 -38 -5 c-27 -4 -42 -1 -51 11 -7 9 -22 16 -32 16 -19 0 -19 -1 1
-40 23 -46 25 -65 8 -122 -16 -51 -61 -75 -111 -59 -18 5 -44 12 -59 15 -39 9
-62 57 -53 110 19 117 25 134 57 161 16 14 40 25 54 25 28 0 31 12 8 31 -12
10 -15 25 -11 56 2 24 1 46 -3 48 -10 6 -25 -34 -21 -54 5 -24 -86 -100 -127
-106 -20 -4 -40 -7 -44 -8 -3 -1 2 -19 12 -40 14 -29 17 -45 9 -63 -5 -14 -9
-35 -9 -47 -1 -52 -76 -97 -161 -97 -56 1 -83 20 -77 55 6 28 -7 32 -33 9 -16
-14 -20 -14 -48 0 -37 20 -41 20 -41 1 0 -45 -120 -42 -170 5 -35 32 -38 63
-10 87 11 10 20 23 20 30 0 7 6 13 13 13 8 0 22 9 32 20 10 11 27 20 38 20 14
0 17 4 12 18 -4 9 -10 48 -13 86 -5 73 -15 71 -26 -7 -6 -40 -16 -57 -57 -99
-50 -51 -61 -54 -111 -33 -15 6 -18 2 -18 -18 0 -14 4 -28 9 -31 12 -8 1 -54
-14 -60 -20 -7 -76 11 -103 34 -15 12 -26 35 -29 60 -5 37 -20 50 -37 33 -8
-9 -52 -13 -137 -16 -47 -1 -60 3 -92 29 -20 16 -37 34 -37 41 0 17 68 29 83
14 6 -6 18 -11 26 -11 11 0 9 6 -7 23 -12 13 -22 33 -22 45 0 11 -4 24 -10 27
-5 3 -10 16 -10 28 0 16 -3 18 -12 9 -27 -27 -128 -7 -128 26 0 4 -29 39 -65
77 -36 39 -65 73 -65 78 0 4 -4 7 -10 7 -5 0 -10 -12 -10 -28 0 -31 -53 -102
-76 -102 -8 0 -14 -4 -14 -10 0 -5 -11 -10 -25 -10 -30 0 -48 30 -39 65 3 14
1 31 -5 39 -23 28 -52 234 -37 271 12 33 44 14 102 -61z m3670 -21 c2 -23 -1
-45 -6 -48 -6 -3 -10 -14 -10 -23 0 -27 -70 -154 -98 -179 -19 -17 -37 -23
-72 -23 -54 0 -59 7 -61 73 l-1 42 -8 -41 c-5 -22 -20 -74 -33 -115 -14 -41
-23 -76 -21 -79 3 -2 20 12 37 32 37 42 76 65 86 50 3 -6 18 -13 33 -17 32 -8
43 -41 23 -71 -49 -75 -165 -144 -220 -130 -22 6 -25 12 -25 52 0 37 -4 46
-22 53 -28 11 -50 -12 -40 -40 12 -32 2 -100 -17 -106 -9 -3 -24 -13 -34 -22
-10 -8 -38 -16 -61 -17 -24 -1 -54 -9 -67 -17 -13 -9 -46 -21 -72 -27 -53 -11
-79 -3 -97 30 -23 43 -1 162 37 199 21 20 24 29 18 60 -4 20 -9 39 -12 44 -9
15 -23 -5 -23 -35 0 -29 -11 -75 -31 -123 -4 -11 -11 -40 -14 -64 -4 -24 -16
-52 -26 -62 -20 -20 -69 -26 -69 -9 0 6 -4 10 -10 10 -5 0 -10 -17 -10 -38 0
-36 -2 -40 -39 -50 -21 -7 -56 -12 -79 -12 -37 0 -40 2 -45 33 -4 17 -2 50 2
72 5 22 12 56 16 75 10 46 22 60 53 60 23 0 24 2 19 43 -3 24 -13 56 -21 72
-9 17 -19 45 -22 63 -3 18 -10 35 -15 38 -14 8 -11 31 6 48 12 11 34 14 103
11 72 -3 96 -9 135 -30 26 -15 47 -33 47 -41 0 -11 12 -8 50 11 27 14 58 25
68 25 11 0 36 7 55 15 20 8 48 15 63 15 15 0 36 9 48 21 42 41 144 99 174 99
33 0 48 -14 54 -50 4 -24 5 -24 12 5 4 17 9 35 11 42 4 13 94 74 152 103 57
29 75 23 79 -27z"/>
<path d="M2477 2100 c-3 -8 -7 -39 -10 -67 l-4 -53 35 0 c20 0 45 -8 56 -17
20 -18 20 -18 3 7 -9 14 -30 52 -46 85 -18 38 -30 55 -34 45z"/>
<path d="M1850 2016 c0 -17 9 -29 30 -40 35 -17 35 -17 13 29 -19 40 -43 46
-43 11z"/>
<path d="M2423 1920 c-7 -11 -13 -30 -13 -42 1 -22 2 -21 16 5 19 35 16 68 -3
37z"/>
<path d="M2383 1837 c-8 -16 -9 -29 -3 -32 12 -8 23 17 18 41 -2 14 -6 12 -15
-9z"/>
<path d="M4342 2088 c-19 -19 -14 -30 11 -26 12 2 22 9 22 17 0 19 -18 24 -33
9z"/>
<path d="M4267 1942 c-29 -18 -33 -32 -17 -63 19 -35 38 -22 42 29 3 26 4 48
4 49 -1 1 -14 -6 -29 -15z"/>
</g>
</svg>
